# xmcd
#
# Track frame offsets:
#	150
#	16802
#	37972
#	65223
#	88097
#
# Disc length: 1600 seconds
#
# Revision: 1
# Processed by: cddbd v1.5.2PL0 Copyright (c) Steve Scherf et al.
# Submitted via: audiograbber 1.83.01
#
DISCID=39063e05
DTITLE=Beats and Styles Feat. Papa Dee - Take It Back [CDM)
DYEAR=2007
DGENRE=Electronic
TTITLE0=Take It Back (Radio Mix)
TTITLE1=Take It Back (DJ Monique Remix Short Cut)
TTITLE2=Take It Back (DJ Monique Remix)
TTITLE3=Take It Back (Red Shoes Remix)
TTITLE4=Take It Back (DJ Control Remix)
EXTD=TR.
EXTT0=
EXTT1=
EXTT2=
EXTT3=
EXTT4=
PLAYORDER=
